<svg width="144" height="144" viewBox="0 0 144 144" fill="none" xmlns="http://www.w3.org/2000/svg">
<path d="M12.1464 92.3636L13.7456 94.3628L12.946 91.7636C12.746 90.564 11.3468 91.9636 12.1464 92.3636ZM13.9456 91.164C14.5452 92.1636 15.1452 93.1632 15.1452 94.1628C15.1452 95.5625 16.3448 96.1621 17.344 96.5616C15.9444 94.9624 15.1448 90.564 13.9456 91.164ZM90.7142 6.39851C94.1126 6.39851 97.3115 5.99849 100.91 6.7981C109.707 8.99732 117.104 13.3953 122.102 19.593L136.096 41.984C136.696 47.5816 137.895 53.7793 137.695 60.5766C139.095 60.5766 138.895 58.5773 140.494 58.1773C138.895 62.1758 138.095 67.1738 137.695 72.9715C136.696 69.7726 137.695 64.9746 137.895 62.3758C136.496 64.575 135.696 62.9754 135.696 61.9758C135.896 60.3766 135.097 60.5761 134.497 59.9765C132.297 57.9773 130.898 55.7781 129.299 52.3797C130.299 49.7809 130.499 45.9824 127.3 43.9832C126.3 43.3836 125.101 42.384 124.501 40.7844C123.701 38.5852 122.302 35.9863 122.701 32.5879C122.901 31.5883 119.702 34.7872 117.903 33.3875C110.106 27.9899 102.31 21.7922 92.9134 16.5942C87.9154 16.5942 84.317 14.795 82.5178 12.5957C80.9186 10.5965 82.1177 7.99771 84.517 7.7977C85.9166 7.7977 87.5158 7.39769 88.7154 8.19772C88.9154 7.39812 89.715 6.39851 90.7142 6.39851ZM70.9225 1.80005L71.3225 2.00006C73.3217 2.40007 74.3213 5.19889 76.5201 4.19928C76.5201 5.59891 76.7201 6.9981 76.3201 7.99771C75.7205 9.59692 73.9209 9.59692 72.5217 9.59692C59.1272 8.79731 51.3303 14.395 43.1338 19.193C40.9346 20.5926 38.5358 21.5922 36.7362 23.3914C28.1397 31.3883 18.7436 38.7852 16.5444 53.5793L14.7452 69.9726C14.5452 71.7718 12.546 73.5711 12.946 75.7703L14.3452 85.5664C12.9456 84.1667 12.146 85.9664 12.546 86.766C12.746 87.3656 13.5456 89.3648 14.7452 87.5656C16.3444 90.5644 17.944 96.3621 20.1428 98.9609C26.9401 106.958 35.7366 114.155 42.9338 121.352C44.733 120.952 46.1327 120.952 46.5323 119.752C47.1319 120.952 45.9327 122.151 44.9331 122.351C48.1319 124.351 51.7303 126.15 56.5283 126.549C62.726 126.949 68.5237 127.949 73.9213 129.349C76.7201 128.549 79.5189 128.149 82.5178 127.949C83.5174 127.949 84.117 126.35 85.3166 125.95L85.5166 123.951C86.7162 125.75 86.5162 123.351 85.7166 122.151C87.1162 123.351 87.5158 124.351 88.1154 125.15C88.1154 124.551 89.7146 122.351 89.715 124.95L90.1146 122.351C90.7142 121.951 90.9142 124.551 91.5142 122.751C92.1138 120.952 93.3135 122.351 94.5131 121.751C94.1131 122.551 94.3131 124.151 95.7123 123.151L97.3119 121.751C98.3115 124.151 99.9107 123.151 100.71 122.751C109.507 117.153 118.303 110.556 126.7 103.959L126.5 106.558L127.499 103.359C128.499 104.359 129.299 103.559 129.699 102.959C130.898 100.96 132.497 98.9609 135.097 97.1617C131.898 105.758 128.099 112.555 123.301 118.153L121.302 120.552C121.302 121.952 120.902 123.751 119.303 123.951C118.503 124.151 116.904 123.551 115.704 124.75C115.105 125.55 117.104 127.15 115.504 125.95C114.105 124.95 112.706 125.95 111.106 126.35C109.906 126.75 111.906 127.949 112.306 128.749C112.706 129.548 113.105 130.348 112.906 131.348L110.706 128.949C108.108 130.348 106.508 132.947 104.309 134.946C103.309 135.746 103.709 137.146 103.709 138.345C102.31 138.345 100.71 137.945 99.9107 138.745C99.3111 139.544 99.5107 140.744 99.5107 141.944C97.5115 141.744 97.3115 138.745 95.5127 139.344C93.7135 139.744 91.7142 139.944 90.1146 140.944C91.3142 143.343 88.1154 141.944 88.5154 142.343C85.5166 140.544 82.9178 139.144 79.7189 140.344C72.9217 138.145 64.5252 139.144 58.3276 139.944C58.3276 138.945 58.5276 137.945 58.1276 137.745C57.7275 138.745 56.5283 138.345 56.7284 138.345C52.9299 135.746 49.1315 134.146 45.1331 131.948C41.5346 132.348 38.1358 130.548 37.1362 129.548C34.3374 126.949 31.1385 128.349 28.5397 127.749C22.9421 126.349 20.9429 120.552 20.3428 116.554C19.9428 114.555 18.3436 113.755 17.744 113.955C15.1452 105.558 11.1468 97.9613 7.94794 90.1644C7.14834 88.1652 7.34835 86.166 7.34835 83.9667C8.34796 84.3667 9.34757 84.1667 9.14756 82.7675C8.14795 76.1703 5.74914 71.1723 3.1499 66.3742C4.54953 59.577 4.74911 51.5801 7.94794 45.5824C10.7468 40.1848 15.9448 37.3855 19.5432 32.7875C20.7429 31.1883 20.7429 28.9891 21.9425 27.5899C25.9409 23.5914 29.9393 19.393 34.3374 15.7946C36.3366 14.1954 38.7354 15.7946 41.7342 15.195C42.7338 11.5966 46.7323 8.39773 50.5307 9.39734C52.1299 9.79735 55.3287 5.59891 56.3283 5.19889C57.9275 4.5993 57.1279 6.7981 57.1279 8.19772C60.9264 5.19889 66.1244 3.59969 70.9225 1.80005Z" fill="#5E7B98"/>
<g clip-path="url(#clip0_89_2)">
<g clip-path="url(#clip1_89_2)">
<g clip-path="url(#clip2_89_2)">
<g clip-path="url(#clip3_89_2)">
<g clip-path="url(#clip4_89_2)">
<g clip-path="url(#clip5_89_2)">
<g clip-path="url(#clip6_89_2)">
<path d="M37.608 79.0131C37.5442 78.9864 37.4672 78.9413 37.3767 78.8775C37.2862 78.8109 37.1562 78.7487 36.9859 78.6901C36.8184 78.6315 36.6043 78.5836 36.3438 78.5465C36.0834 78.5067 35.7524 78.4999 35.3508 78.5266V76.5605C35.9223 76.5737 36.5034 76.6351 37.0936 76.744C37.6838 76.8557 38.1611 77.0283 38.5252 77.2624C38.4483 77.4299 38.3577 77.6146 38.2541 77.8167C38.1504 78.0161 38.0519 78.2036 37.959 78.379C37.8684 78.5545 37.7915 78.7009 37.7277 78.8177C37.6611 78.9346 37.6212 79 37.608 79.0131ZM30.8923 80.5724C30.8923 80.0009 30.9892 79.4877 31.1835 79.0331C31.3777 78.5784 31.6409 78.1796 31.9731 77.8367C32.3029 77.4909 32.6921 77.2186 33.1415 77.0192C33.5882 76.817 34.0588 76.683 34.5533 76.6164V78.6622C34.1385 78.8058 33.7944 79.0558 33.5204 79.4119C33.2492 79.768 33.1136 80.1285 33.1136 80.4926C33.1136 81.0003 33.2492 81.4099 33.5204 81.7209C33.7944 82.032 34.1385 82.3044 34.5533 82.5385V84.7557C34.1254 84.5484 33.6971 84.325 33.2691 84.0858C32.8385 83.8465 32.4488 83.5645 32.1007 83.2403C31.7497 82.9161 31.4598 82.5385 31.2313 82.1078C31.0052 81.6799 30.8923 81.1678 30.8923 80.5724ZM30.7966 90.1913L31.2034 88.5164C31.3841 88.62 31.6142 88.7209 31.8933 88.8194C32.1725 88.9152 32.4624 89.0057 32.7627 89.0906C33.0606 89.1756 33.3581 89.2434 33.656 89.294C33.9563 89.347 34.2354 89.3738 34.4934 89.3738H34.5533V91.2242H34.5134C34.2023 91.2242 33.8805 91.207 33.5483 91.1723C33.2185 91.1404 32.8851 91.0858 32.5473 91.0088C32.2096 90.9318 31.8881 90.8242 31.5823 90.6858C31.2792 90.5502 31.0172 90.3855 30.7966 90.1913ZM35.3508 85.2064V82.9253C35.7788 83.1219 36.2174 83.3309 36.6669 83.5514C37.1135 83.7719 37.5191 84.0407 37.8832 84.3569C38.2473 84.676 38.5452 85.0628 38.7765 85.5174C39.0106 85.9721 39.1274 86.5371 39.1274 87.2123C39.1274 87.6777 39.0397 88.1307 38.8642 88.5722C38.6915 89.0137 38.4455 89.4136 38.1264 89.7726C37.8074 90.1287 37.4138 90.4306 36.946 90.6778C36.4806 90.9251 35.949 91.0874 35.3508 91.1643V89.294C36.4144 89.0336 36.946 88.3261 36.946 87.1724C36.946 86.7178 36.7973 86.3417 36.4994 86.0438C36.2015 85.7436 35.8186 85.4644 35.3508 85.2064ZM43.3546 87.8344C43.3546 88.4195 43.4743 88.8541 43.7135 89.1385C43.9556 89.4228 44.3026 89.5919 44.7544 89.6449V91.2242C44.7037 91.2349 44.62 91.2401 44.5031 91.2401C44.0617 91.2401 43.6366 91.1815 43.227 91.0646C42.8174 90.9502 42.4573 90.7628 42.1463 90.5023C41.8352 90.2419 41.592 89.8974 41.4165 89.4695C41.241 89.0416 41.1533 88.5164 41.1533 87.8942C41.1533 87.2961 41.2797 86.7788 41.5321 86.3429C41.7874 85.9094 42.1132 85.5533 42.5092 85.2742C42.9028 84.995 43.3534 84.7876 43.8611 84.6521C44.3664 84.5137 44.8792 84.4447 45.4004 84.4447H46.2538V85.8285H45.8271C45.5667 85.8285 45.2939 85.8552 45.0096 85.9083C44.7253 85.9589 44.4593 86.0558 44.212 86.1994C43.9648 86.3401 43.7602 86.5451 43.5979 86.8135C43.4356 87.0795 43.3546 87.4197 43.3546 87.8344ZM49.4083 87.7387V87.8942C49.4083 87.9979 49.4151 88.1495 49.4282 88.3489C49.4414 88.5511 49.4681 88.7556 49.508 88.963C49.5479 89.1704 49.6089 89.359 49.6914 89.5293C49.7764 89.6968 49.8908 89.8073 50.0344 89.8603L49.4083 91.1643C49.2408 91.1643 49.0625 91.1257 48.8739 91.0487C48.6853 90.9689 48.503 90.8585 48.3276 90.7177C48.1549 90.5741 48.0057 90.4146 47.8809 90.2391C47.7585 90.0637 47.6644 89.8723 47.5978 89.6649C47.4702 89.9891 47.2149 90.2778 46.8321 90.5303C46.4465 90.7827 46.0213 90.9677 45.556 91.0846V89.6051C45.867 89.5413 46.149 89.4148 46.4014 89.2262C46.6538 89.0376 46.872 88.8143 47.0554 88.5562V84.4447C47.0554 83.8094 47.0223 83.3029 46.9557 82.9253C46.8919 82.5504 46.7814 82.2752 46.6247 82.0998C46.4704 81.9243 46.279 81.8138 46.0505 81.7688C45.8243 81.7237 45.556 81.701 45.2449 81.701C44.9578 81.701 44.6878 81.7369 44.4353 81.8087C44.1829 81.8804 43.9488 81.9642 43.7335 82.0599C43.5209 82.1584 43.3335 82.2661 43.1712 82.3829C43.0089 82.4998 42.888 82.5903 42.8083 82.6541L41.9309 81.3102C42.0613 81.1666 42.2567 81.0202 42.5172 80.8715C42.7776 80.7227 43.0767 80.5896 43.4144 80.4727C43.7522 80.3559 44.1175 80.2613 44.5111 80.1896C44.9071 80.1206 45.3207 80.0859 45.7514 80.0859C46.1394 80.0859 46.5182 80.1246 46.8879 80.2015C47.2576 80.2785 47.595 80.4089 47.9009 80.5923C48.2067 80.773 48.4723 81.0163 48.6984 81.3221C48.927 81.6252 49.0865 82.0041 49.177 82.4587C49.2675 82.9133 49.3285 83.3719 49.3604 83.8345C49.3923 84.2943 49.4083 84.7518 49.4083 85.2064V87.7387ZM53.129 80.1616H55.2307L55.4859 81.2902V87.2482V87.2881V91.1444H53.129V80.1616ZM56.2835 82.6342V80.6482C56.6077 80.4675 56.9973 80.3279 57.452 80.2294C57.9066 80.1337 58.5235 80.0859 59.3024 80.0859V82.5385C58.9383 82.4348 58.4968 82.3761 57.9784 82.363C57.6912 82.363 57.4029 82.3857 57.113 82.4308C56.8207 82.4758 56.5439 82.5436 56.2835 82.6342ZM72.3309 89.3139L74.3727 80.1616H76.925L73.8304 91.2242H70.7916L69.6231 86.6859V80.1616H70.4805L72.3309 89.3139ZM64.0719 80.1616L65.8824 89.3139L67.9282 80.1616H68.8255V86.0997L67.4218 91.2242H64.363L61.5396 80.1616H64.0719ZM81.5789 87.8344C81.5789 88.4195 81.6986 88.8541 81.9378 89.1385C82.1799 89.4228 82.5268 89.5919 82.9787 89.6449V91.2242C82.928 91.2349 82.8443 91.2401 82.7274 91.2401C82.286 91.2401 81.8609 91.1815 81.4513 91.0646C81.0417 90.9502 80.6816 90.7628 80.3706 90.5023C80.0595 90.2419 79.8163 89.8974 79.6408 89.4695C79.4653 89.0416 79.3776 88.5164 79.3776 87.8942C79.3776 87.2961 79.504 86.7788 79.7564 86.3429C80.0117 85.9094 80.3359 85.5533 80.7295 85.2742C81.1255 84.995 81.5777 84.7876 82.0854 84.6521C82.5907 84.5137 83.1035 84.4447 83.6247 84.4447H84.4781V85.8285H84.0514C83.791 85.8285 83.5182 85.8552 83.2339 85.9083C82.9496 85.9589 82.6836 86.0558 82.4363 86.1994C82.1891 86.3401 81.9845 86.5451 81.8222 86.8135C81.6599 87.0795 81.5789 87.4197 81.5789 87.8344ZM87.6326 87.7387V87.8942C87.6326 87.9979 87.6394 88.1495 87.6525 88.3489C87.6657 88.5511 87.6924 88.7556 87.7323 88.963C87.7722 89.1704 87.8332 89.359 87.9157 89.5293C88.0007 89.6968 88.1151 89.8073 88.2587 89.8603L87.6326 91.1643C87.4651 91.1643 87.2868 91.1257 87.0982 91.0487C86.9096 90.9689 86.7273 90.8585 86.5519 90.7177C86.3792 90.5741 86.23 90.4146 86.1052 90.2391C85.9828 90.0637 85.8887 89.8723 85.8221 89.6649C85.6945 89.9891 85.438 90.2778 85.0524 90.5303C84.6696 90.7827 84.2457 90.9677 83.7803 91.0846V89.6051C84.0913 89.5413 84.3733 89.4148 84.6257 89.2262C84.8781 89.0376 85.0963 88.8143 85.2797 88.5562V84.4447C85.2797 83.8094 85.2466 83.3029 85.18 82.9253C85.1162 82.5504 85.0057 82.2752 84.849 82.0998C84.6947 81.9243 84.5033 81.8138 84.2748 81.7688C84.0486 81.7237 83.7803 81.701 83.4692 81.701C83.1821 81.701 82.9121 81.7369 82.6596 81.8087C82.4072 81.8804 82.1731 81.9642 81.9578 82.0599C81.7452 82.1584 81.5562 82.2661 81.3915 82.3829C81.2292 82.4998 81.1095 82.5903 81.0326 82.6541L80.1552 81.3102C80.2856 81.1666 80.481 81.0202 80.7415 80.8715C81.0019 80.7227 81.301 80.5896 81.6387 80.4727C81.9737 80.3559 82.3394 80.2613 82.7354 80.1896C83.1314 80.1206 83.5438 80.0859 83.9717 80.0859C84.3625 80.0859 84.7425 80.1246 85.1122 80.2015C85.4819 80.2785 85.8193 80.4089 86.1252 80.5923C86.431 80.773 86.6966 81.0163 86.9227 81.3221C87.1513 81.6252 87.3108 82.0041 87.4013 82.4587C87.4918 82.9133 87.5528 83.3719 87.5847 83.8345C87.6166 84.2943 87.6326 84.7518 87.6326 85.2064V87.7387ZM91.3533 80.1616H93.455L93.7102 81.2703V91.1444H91.3533V80.1616ZM99.5326 81.37C99.7531 81.5905 99.9246 81.8473 100.047 82.1397C100.172 82.432 100.264 82.7367 100.322 83.0529C100.381 83.3719 100.415 83.6938 100.426 84.018C100.439 84.3422 100.446 84.66 100.446 84.9711V90.7536V91.1444H98.073V85.1665C98.073 84.725 98.0531 84.3039 98.0132 83.9023C97.9733 83.4983 97.8828 83.1406 97.742 82.8296C97.5984 82.5185 97.403 82.2752 97.1558 82.0998C96.9085 81.9243 96.5644 81.8366 96.1229 81.8366C95.9422 81.8366 95.699 81.8657 95.3931 81.9243C95.0872 81.9829 94.7921 82.077 94.5078 82.2075V80.708C94.8587 80.5245 95.2388 80.369 95.6483 80.2414C96.0579 80.111 96.4567 80.046 96.8447 80.046C97.4297 80.046 97.9226 80.1656 98.3242 80.4049C98.7258 80.6442 99.1286 80.966 99.5326 81.37ZM107.692 91.2401C106.963 91.2401 106.327 91.0818 105.782 90.7656C105.237 90.4465 104.782 90.021 104.418 89.4894C104.056 88.9578 103.79 88.3477 103.62 87.659C103.453 86.9702 103.369 86.25 103.369 85.4975C103.369 84.4846 103.509 83.6339 103.788 82.9452C104.067 82.2593 104.423 81.6982 104.856 81.2623C105.292 80.8264 105.779 80.5178 106.316 80.3371C106.856 80.1565 107.385 80.0659 107.903 80.0659C108.307 80.0659 108.692 80.111 109.056 80.2015C109.417 80.2921 109.748 80.4221 110.049 80.5923V82.6541C109.839 82.42 109.594 82.2314 109.315 82.0878C109.036 81.947 108.734 81.8765 108.41 81.8765C108.022 81.8765 107.668 81.9762 107.349 82.1756C107.033 82.3777 106.764 82.6473 106.543 82.9851C106.323 83.3229 106.154 83.7189 106.037 84.1735C105.92 84.6281 105.861 85.1079 105.861 85.6131C105.861 86.1344 105.922 86.6249 106.045 87.0847C106.17 87.5445 106.345 87.9433 106.571 88.2811C106.797 88.6188 107.07 88.8884 107.389 89.0906C107.708 89.2928 108.062 89.3937 108.45 89.3937C108.774 89.3937 109.067 89.3247 109.327 89.1863C109.587 89.0507 109.828 88.8725 110.049 88.6519V90.6778C109.735 90.8321 109.378 90.9649 108.976 91.0766C108.574 91.1855 108.147 91.2401 107.692 91.2401ZM111.098 80.1616H113.203L113.183 91.1444C113.13 91.9368 112.971 92.612 112.705 93.1703C112.439 93.7286 112.099 94.1884 111.684 94.5501C111.266 94.9142 110.785 95.175 110.24 95.3317C109.695 95.4861 109.112 95.563 108.489 95.563C107.761 95.563 107.043 95.4366 106.336 95.1842C105.629 94.9317 105.041 94.5062 104.573 93.908L105.937 92.5641C106.068 92.7846 106.233 92.9669 106.436 93.1105C106.635 93.254 106.842 93.3645 107.058 93.4415C107.273 93.5184 107.487 93.5742 107.7 93.6089C107.915 93.6408 108.107 93.6568 108.274 93.6568C109.08 93.6568 109.71 93.4227 110.164 92.9549C110.619 92.4871 110.846 91.6896 110.846 90.5622V81.2703L111.098 80.1616Z" fill="#336A86"/>
<path d="M58.0262 96.7035H60.403V107.882C60.403 108.557 60.2794 109.125 60.0321 109.584C59.7877 110.044 59.4567 110.414 59.0391 110.693C58.6244 110.972 58.147 111.168 57.6075 111.279C57.0703 111.388 56.516 111.443 55.9445 111.443C55.6602 111.443 55.3252 111.414 54.9395 111.355C54.5567 111.296 54.1619 111.206 53.7551 111.084C53.3456 110.962 52.9524 110.822 52.5747 110.665C52.1998 110.511 51.882 110.335 51.6216 110.139L52.6146 108.564C52.745 108.654 52.9296 108.748 53.1689 108.847C53.4082 108.942 53.6714 109.033 53.9585 109.118C54.2428 109.203 54.5419 109.277 54.8558 109.341C55.1669 109.405 55.458 109.437 55.7292 109.437C56.4179 109.437 56.9666 109.304 57.3762 109.038C57.7857 108.772 58.0023 108.321 58.0262 107.686V96.7035ZM65.699 108.037C65.699 108.622 65.8198 109.057 66.0619 109.341C66.3011 109.626 66.6481 109.795 67.1027 109.848V111.427C67.0497 111.438 66.9643 111.443 66.8475 111.443C66.406 111.443 65.9809 111.384 65.5714 111.267C65.1646 111.153 64.8045 110.965 64.4906 110.705C64.1796 110.445 63.9363 110.1 63.7608 109.672C63.5854 109.244 63.4976 108.719 63.4976 108.097C63.4976 107.499 63.6252 106.982 63.8805 106.546C64.1329 106.112 64.4575 105.756 64.8535 105.477C65.2495 105.198 65.7002 104.99 66.2054 104.855C66.7131 104.716 67.2263 104.647 67.7448 104.647H68.6022V106.031H68.1715C67.9135 106.031 67.6411 106.058 67.354 106.111C67.0696 106.162 66.8036 106.259 66.5564 106.402C66.3091 106.543 66.1045 106.748 65.9422 107.016C65.7799 107.282 65.699 107.622 65.699 108.037ZM71.7566 107.941V108.097C71.7566 108.201 71.7634 108.352 71.7766 108.552C71.7897 108.754 71.8153 108.958 71.8523 109.166C71.8922 109.373 71.9548 109.562 72.0398 109.732C72.1223 109.9 72.2352 110.01 72.3788 110.063L71.7566 111.367C71.5863 111.367 71.4085 111.328 71.2223 111.251C71.0336 111.172 70.8514 111.061 70.6759 110.92C70.5004 110.777 70.3501 110.617 70.2253 110.442C70.1028 110.266 70.0099 110.075 69.9461 109.868C69.8157 110.192 69.5593 110.481 69.1764 110.733C68.7936 110.985 68.3681 111.17 67.9003 111.287V109.808C68.2114 109.744 68.4933 109.618 68.7457 109.429C69.001 109.24 69.2191 109.017 69.3998 108.759V104.647C69.3998 104.012 69.3679 103.506 69.3041 103.128C69.2375 102.753 69.1274 102.478 68.9731 102.303C68.8163 102.127 68.6233 102.017 68.3948 101.972C68.1687 101.926 67.9003 101.904 67.5892 101.904C67.3021 101.904 67.0321 101.94 66.7797 102.011C66.5273 102.083 66.2932 102.167 66.0778 102.263C65.8653 102.361 65.6778 102.469 65.5155 102.586C65.3532 102.703 65.2336 102.793 65.1566 102.857L64.2793 101.513C64.4097 101.369 64.6035 101.223 64.8615 101.074C65.1219 100.925 65.421 100.792 65.7588 100.675C66.0966 100.559 66.4635 100.464 66.8595 100.392C67.2555 100.323 67.6678 100.289 68.0957 100.289C68.4837 100.289 68.8626 100.327 69.2323 100.404C69.6043 100.481 69.9421 100.612 70.2452 100.795C70.5511 100.976 70.8183 101.219 71.0468 101.525C71.2729 101.828 71.4308 102.207 71.5213 102.661C71.6119 103.116 71.6741 103.575 71.7088 104.037C71.7407 104.497 71.7566 104.954 71.7566 105.409V107.941ZM77.8303 100.364V111.347H75.4574V100.364H77.8303ZM78.0456 96.859C78.0456 97.2498 77.9088 97.578 77.6348 97.844C77.3637 98.11 77.0327 98.2428 76.6418 98.2428C76.2538 98.2428 75.9268 98.106 75.6608 97.832C75.3948 97.5609 75.262 97.2366 75.262 96.859C75.262 96.471 75.3976 96.14 75.6688 95.866C75.9428 95.5948 76.267 95.4592 76.6418 95.4592C77.0327 95.4592 77.3637 95.5948 77.6348 95.866C77.9088 96.14 78.0456 96.471 78.0456 96.859ZM81.1402 100.364H83.2459L83.4971 101.473V111.347H81.1402V100.364ZM89.3195 101.573C89.54 101.793 89.7115 102.05 89.8339 102.342C89.9587 102.635 90.0505 102.939 90.1091 103.256C90.1677 103.575 90.2036 103.896 90.2168 104.221C90.2299 104.545 90.2367 104.863 90.2367 105.174V110.956V111.347H87.8599V105.369C87.8599 104.928 87.8399 104.507 87.8001 104.105C87.763 103.701 87.6725 103.343 87.5289 103.032C87.3853 102.721 87.1899 102.478 86.9427 102.303C86.6982 102.127 86.3552 102.039 85.9138 102.039C85.7303 102.039 85.4859 102.068 85.18 102.127C84.8769 102.186 84.5818 102.28 84.2947 102.41V100.911C84.6456 100.727 85.0257 100.572 85.4352 100.444C85.8448 100.314 86.2436 100.249 86.6316 100.249C87.2166 100.249 87.7095 100.368 88.1111 100.608C88.5151 100.847 88.9179 101.169 89.3195 101.573Z" fill="#8EAEC4"/>
</g>
</g>
</g>
</g>
<g clip-path="url(#clip7_89_2)">
<g clip-path="url(#clip8_89_2)">
<path d="M95.6087 33.2031H48.3907C47.8992 33.2039 47.428 33.3995 47.0804 33.7471C46.7328 34.0947 46.5372 34.5659 46.5364 35.0575V69.1729C46.5372 69.6645 46.7328 70.1357 47.0804 70.4833C47.428 70.8308 47.8992 71.0265 48.3907 71.0273H95.6093C96.1009 71.0265 96.5721 70.8308 96.9196 70.4833C97.2672 70.1357 97.4628 69.6645 97.4636 69.1729V35.0569C97.4627 34.5653 97.2669 34.0942 96.9192 33.7467C96.5715 33.3992 96.1003 33.2038 95.6087 33.2031ZM48.3907 33.9449H95.6093C95.9041 33.9453 96.1868 34.0626 96.3953 34.271C96.6038 34.4795 96.7213 34.762 96.7219 35.0569V40.494C96.6812 40.488 96.6404 40.4814 96.5979 40.4814H47.4057C47.362 40.4814 47.32 40.488 47.2781 40.494V35.0563C47.2781 34.4439 47.7772 33.9449 48.3907 33.9449ZM96.7219 68.3755C96.7218 68.4083 96.7086 68.4397 96.6854 68.4628C96.6621 68.4859 96.6307 68.4989 96.5979 68.4989H47.4057C47.373 68.4989 47.3416 68.4859 47.3185 68.4627C47.2953 68.4396 47.2823 68.4082 47.2823 68.3755V41.3466C47.2823 41.2789 47.338 41.2232 47.4057 41.2232H96.5973C96.6656 41.2232 96.7213 41.2789 96.7213 41.3466L96.7219 68.3755ZM95.6087 70.2849H48.3907C48.1059 70.2842 47.8322 70.1741 47.6262 69.9775C47.4201 69.7808 47.2975 69.5125 47.2835 69.228C47.3236 69.234 47.3644 69.2406 47.4057 69.2406H96.5973C96.638 69.2406 96.677 69.234 96.7153 69.2286C96.7013 69.513 96.5787 69.7811 96.3728 69.9776C96.1669 70.1742 95.8934 70.2842 95.6087 70.2849Z" fill="#5E7B98"/>
<path d="M58.9255 38.8064C59.7942 38.8064 60.5012 38.0994 60.5012 37.2306C60.5012 36.3613 59.7942 35.6543 58.9255 35.6543C58.0567 35.6543 57.3491 36.3613 57.3491 37.2306C57.3491 38.1 58.0567 38.8064 58.9255 38.8064ZM58.9255 36.3966C59.1413 36.4048 59.3456 36.4963 59.4955 36.6519C59.6453 36.8076 59.729 37.0152 59.729 37.2312C59.729 37.4473 59.6453 37.6549 59.4955 37.8105C59.3456 37.9661 59.1413 38.0576 58.9255 38.0658C58.7096 38.0576 58.5053 37.9661 58.3554 37.8105C58.2056 37.6549 58.1219 37.4473 58.1219 37.2312C58.1219 37.0152 58.2056 36.8076 58.3554 36.6519C58.5053 36.4963 58.7096 36.4048 58.9255 36.3966Z" fill="#5E7B98"/>
<path d="M54.8992 38.8064C55.3171 38.806 55.7178 38.6399 56.0133 38.3445C56.3088 38.0491 56.4751 37.6485 56.4755 37.2306C56.4751 36.8127 56.3088 36.412 56.0133 36.1165C55.7178 35.821 55.3171 35.6548 54.8992 35.6543C54.0305 35.6543 53.3235 36.3613 53.3235 37.2306C53.3235 38.1 54.0305 38.8064 54.8992 38.8064ZM54.8992 36.3966C55.1206 36.3966 55.333 36.4846 55.4896 36.6412C55.6462 36.7977 55.7341 37.0101 55.7341 37.2315C55.7341 37.453 55.6462 37.6653 55.4896 37.8219C55.333 37.9785 55.1206 38.0664 54.8992 38.0664C54.6778 38.0665 54.4654 37.9786 54.3088 37.8221C54.1521 37.6656 54.0641 37.4533 54.064 37.2318C54.0639 37.0104 54.1518 36.798 54.3083 36.6414C54.4649 36.4847 54.6778 36.3967 54.8992 36.3966Z" fill="#5E7B98"/>
<path d="M50.8729 38.8064C51.2907 38.806 51.6914 38.6399 51.9869 38.3445C52.2825 38.0491 52.4487 37.6485 52.4492 37.2306C52.4487 36.8127 52.2825 36.412 51.987 36.1165C51.6914 35.821 51.2908 35.6548 50.8729 35.6543C50.0041 35.6543 49.2971 36.3613 49.2971 37.2306C49.2971 38.1 50.0041 38.8064 50.8729 38.8064ZM50.8729 36.3966C51.0943 36.3966 51.3066 36.4846 51.4632 36.6412C51.6198 36.7977 51.7077 37.0101 51.7077 37.2315C51.7077 37.453 51.6198 37.6653 51.4632 37.8219C51.3066 37.9785 51.0943 38.0664 50.8729 38.0664C50.6514 38.0665 50.439 37.9786 50.2824 37.8221C50.1258 37.6656 50.0377 37.4533 50.0377 37.2318C50.0376 37.0104 50.1255 36.798 50.282 36.6414C50.4385 36.4847 50.6514 36.3967 50.8729 36.3966Z" fill="#5E7B98"/>
<path d="M57.9787 61.6501C57.6048 61.6501 57.1429 61.393 56.6073 60.8856C55.6456 59.9755 55.3131 59.465 55.8883 58.8455L61.1547 53.5665L55.8979 48.3049C55.4929 47.8999 55.5564 47.5889 55.6576 47.3642C55.8026 47.0383 56.1453 46.695 56.5437 46.2972C57.0404 45.8005 57.4676 45.3733 57.8864 45.3733C58.0913 45.3733 58.2932 45.4763 58.5053 45.6884L65.5566 52.7313C65.7429 52.8835 65.8687 53.1261 65.8945 53.4107C65.9232 53.7325 65.8142 54.1009 65.6237 54.3292L58.5371 61.4098C58.3651 61.5734 58.1842 61.6501 57.9787 61.6501ZM56.3299 47.6632C56.3245 47.6632 56.346 47.7039 56.4221 47.7794L61.9408 53.3041C62.0101 53.3737 62.049 53.4679 62.049 53.5662C62.049 53.6644 62.0101 53.7587 61.9408 53.8283L56.4221 59.3601C56.3912 59.3896 56.3645 59.4231 56.3424 59.4596C56.3496 59.4878 56.4173 59.6855 57.1165 60.3463C57.7031 60.9017 57.9673 60.9083 57.9781 60.9083V61.2792L57.9841 60.9077L57.9835 60.9083C57.9817 60.9083 57.9955 60.9011 58.02 60.8784L65.0761 53.8283C65.1126 53.7822 65.1665 53.6144 65.1545 53.4754C65.1534 53.4376 65.1442 53.4005 65.1274 53.3666C65.1107 53.3327 65.0868 53.3028 65.0575 53.2789L57.9805 46.2121C57.8942 46.1264 57.8517 46.1096 57.8517 46.1096C57.7426 46.1456 57.3208 46.5674 57.0686 46.819C56.7504 47.1377 56.4233 47.4649 56.3334 47.6656C56.3322 47.6638 56.3311 47.6632 56.3299 47.6632Z" fill="#5E7B98"/>
<path d="M75.495 64.9581H66.3066C65.3516 64.9581 65.1562 64.2187 65.1562 63.1079C65.1562 61.9971 65.3516 61.2578 66.3066 61.2578H75.495C76.3955 61.2578 76.5656 61.9079 76.5656 63.1079C76.5656 64.335 76.4009 64.9581 75.495 64.9581ZM66.3066 61.9989C66.0873 61.9989 65.8974 61.9989 65.8974 63.1079C65.8974 64.2169 66.0867 64.2169 66.3066 64.2169H75.495C75.7071 64.2169 75.8245 64.2169 75.8245 63.1079C75.8245 61.9989 75.6933 61.9989 75.495 61.9989H66.3066Z" fill="#5E7B98"/>
</g>
</g>
</g>
</g>
</g>
<defs>
<clipPath id="clip0_89_2">
<rect width="82.4066" height="81" fill="white" transform="translate(30.7966 33.2031)"/>
</clipPath>
<clipPath id="clip1_89_2">
<rect width="82.4066" height="81" fill="white" transform="translate(30.7966 33.2031)"/>
</clipPath>
<clipPath id="clip2_89_2">
<rect width="82.4066" height="81" fill="white" transform="translate(30.7966 33.2031)"/>
</clipPath>
<clipPath id="clip3_89_2">
<rect width="82.4066" height="40.4026" fill="white" transform="translate(30.7966 73.8005)"/>
</clipPath>
<clipPath id="clip4_89_2">
<rect width="82.4066" height="40.4026" fill="white" transform="translate(30.7966 73.8005)"/>
</clipPath>
<clipPath id="clip5_89_2">
<rect width="82.4066" height="40.4026" fill="white" transform="translate(30.7966 73.8005)"/>
</clipPath>
<clipPath id="clip6_89_2">
<rect width="82.4066" height="40.4026" fill="white" transform="translate(30.7966 73.8005)"/>
</clipPath>
<clipPath id="clip7_89_2">
<rect width="50.9273" height="37.8241" fill="white" transform="translate(46.5364 33.2031)"/>
</clipPath>
<clipPath id="clip8_89_2">
<rect width="50.9273" height="37.8241" fill="white" transform="translate(46.5364 33.2031)"/>
</clipPath>
</defs>
</svg>
